<svg width="39" height="33" viewBox="0 0 39 33" fill="none" xmlns="http://www.w3.org/2000/svg">
<path d="M12.476 32.22C10.1293 32.22 8.04667 31.5893 6.228 30.328C4.40933 29.0667 2.98667 27.2773 1.96 24.96C0.933333 22.6133 0.42 19.8267 0.42 16.6C0.42 13.3733 0.933333 10.6013 1.96 8.284C2.98667 5.93733 4.40933 4.13333 6.228 2.872C8.04667 1.61066 10.1293 0.979998 12.476 0.979998C14.852 0.979998 16.9347 1.61066 18.724 2.872C20.5427 4.13333 21.9653 5.93733 22.992 8.284C24.0187 10.6013 24.532 13.3733 24.532 16.6C24.532 19.8267 24.0187 22.6133 22.992 24.96C21.9653 27.2773 20.5427 29.0667 18.724 30.328C16.9347 31.5893 14.852 32.22 12.476 32.22ZM12.476 30.152C14.4413 30.152 16.1573 29.624 17.624 28.568C19.0907 27.4827 20.2347 25.928 21.056 23.904C21.8773 21.88 22.288 19.4453 22.288 16.6C22.288 13.7253 21.8773 11.2907 21.056 9.296C20.2347 7.272 19.0907 5.732 17.624 4.676C16.1573 3.59066 14.4413 3.048 12.476 3.048C10.54 3.048 8.824 3.59066 7.328 4.676C5.86133 5.732 4.71733 7.272 3.896 9.296C3.07467 11.2907 2.664 13.7253 2.664 16.6C2.664 19.4453 3.07467 21.88 3.896 23.904C4.71733 25.928 5.86133 27.4827 7.328 28.568C8.824 29.624 10.54 30.152 12.476 30.152ZM36.2009 32V2.168L37.2129 3.224H28.6769V1.2H38.4449V32H36.2009Z" fill="#9695AB"/>
</svg>
