<svg width="52" height="33" viewBox="0 0 52 33" fill="none" xmlns="http://www.w3.org/2000/svg">
<path d="M12.476 32.22C10.1293 32.22 8.04667 31.5893 6.228 30.328C4.40933 29.0667 2.98667 27.2773 1.96 24.96C0.933333 22.6133 0.42 19.8267 0.42 16.6C0.42 13.3733 0.933333 10.6013 1.96 8.284C2.98667 5.93733 4.40933 4.13333 6.228 2.872C8.04667 1.61066 10.1293 0.979998 12.476 0.979998C14.852 0.979998 16.9347 1.61066 18.724 2.872C20.5427 4.13333 21.9653 5.93733 22.992 8.284C24.0187 10.6013 24.532 13.3733 24.532 16.6C24.532 19.8267 24.0187 22.6133 22.992 24.96C21.9653 27.2773 20.5427 29.0667 18.724 30.328C16.9347 31.5893 14.852 32.22 12.476 32.22ZM12.476 30.152C14.4413 30.152 16.1573 29.624 17.624 28.568C19.0907 27.4827 20.2347 25.928 21.056 23.904C21.8773 21.88 22.288 19.4453 22.288 16.6C22.288 13.7253 21.8773 11.2907 21.056 9.296C20.2347 7.272 19.0907 5.732 17.624 4.676C16.1573 3.59066 14.4413 3.048 12.476 3.048C10.54 3.048 8.824 3.59066 7.328 4.676C5.86133 5.732 4.71733 7.272 3.896 9.296C3.07467 11.2907 2.664 13.7253 2.664 16.6C2.664 19.4453 3.07467 21.88 3.896 23.904C4.71733 25.928 5.86133 27.4827 7.328 28.568C8.824 29.624 10.54 30.152 12.476 30.152ZM30.0849 32V30.416L43.1089 17.48C44.3409 16.248 45.2649 15.1773 45.8809 14.268C46.4969 13.3293 46.9076 12.464 47.1129 11.672C47.3476 10.88 47.4649 10.1027 47.4649 9.34C47.4649 7.404 46.8049 5.87867 45.4849 4.764C44.1649 3.62 42.2289 3.048 39.6769 3.048C37.7409 3.048 36.0396 3.34133 34.5729 3.928C33.1356 4.51467 31.8889 5.40933 30.8329 6.612L29.2489 5.204C30.4223 3.85467 31.9036 2.81333 33.6929 2.08C35.5116 1.34667 37.5649 0.979998 39.8529 0.979998C41.8769 0.979998 43.6223 1.31733 45.0889 1.992C46.5849 2.63733 47.7289 3.576 48.5209 4.808C49.3423 6.01067 49.7529 7.448 49.7529 9.12C49.7529 10.1173 49.6063 11.1 49.3129 12.068C49.0489 13.0067 48.5503 14.004 47.8169 15.06C47.1129 16.116 46.0863 17.3187 44.7369 18.668L32.5049 30.856L31.7569 29.976H51.2489V32H30.0849Z" fill="#9695AB"/>
</svg>
